# Blender 5.1.1
# www.blender.org
mtllib taimihud.mtl
o Curve
v -0.004156 -0.000321 0.000500
v 0.000924 -0.000321 0.000500
v 0.001770 -0.005400 0.000500
v -0.001616 -0.012172 0.000500
v -0.005850 -0.007939 0.000500
v -0.002463 -0.005400 0.000500
v 0.002617 -0.005400 0.000500
v 0.001770 -0.000321 0.000500
v 0.005157 -0.004553 0.000500
v 0.004310 -0.007939 0.000500
v 0.006850 -0.010479 0.000500
v 0.001770 -0.012172 0.000500
v 0.000924 -0.009632 0.000500
v 0.006004 0.007298 0.000500
v 0.011931 0.008144 0.000500
v 0.011931 -0.001167 0.000500
v 0.004310 0.001372 0.000500
v 0.005157 0.002642 0.000500
v 0.005157 0.006451 0.000500
v -0.011777 0.001372 0.000500
v -0.011777 0.008144 0.000500
v -0.006697 0.007298 0.000500
v -0.005003 0.007298 0.000500
v -0.005003 0.005182 0.000500
v -0.003310 0.001796 0.000500
v -0.010930 -0.000321 0.000500
v -0.004156 0.007298 0.000500
v 0.004310 0.007298 0.000500
v 0.004310 0.003065 0.000500
v 0.002617 0.000526 0.000500
v -0.002463 0.000526 0.000500
v -0.002463 0.002219 0.000500
v -0.004156 0.005605 0.000500
v -0.004156 -0.000321 -0.000500
v 0.000924 -0.000321 -0.000500
v 0.001770 -0.005400 -0.000500
v -0.001616 -0.012172 -0.000500
v -0.005850 -0.007939 -0.000500
v -0.002463 -0.005400 -0.000500
v 0.002617 -0.005400 -0.000500
v 0.001770 -0.000321 -0.000500
v 0.005157 -0.004553 -0.000500
v 0.004310 -0.007939 -0.000500
v 0.006850 -0.010479 -0.000500
v 0.001770 -0.012172 -0.000500
v 0.000924 -0.009632 -0.000500
v 0.006004 0.007298 -0.000500
v 0.011931 0.008144 -0.000500
v 0.011931 -0.001167 -0.000500
v 0.004310 0.001372 -0.000500
v 0.005157 0.002642 -0.000500
v 0.005157 0.006451 -0.000500
v -0.011777 0.001372 -0.000500
v -0.011777 0.008144 -0.000500
v -0.006697 0.007298 -0.000500
v -0.005003 0.007298 -0.000500
v -0.005003 0.005182 -0.000500
v -0.003310 0.001796 -0.000500
v -0.010930 -0.000321 -0.000500
v -0.004156 0.007298 -0.000500
v 0.004310 0.007298 -0.000500
v 0.004310 0.003065 -0.000500
v 0.002617 0.000526 -0.000500
v -0.002463 0.000526 -0.000500
v -0.002463 0.002219 -0.000500
v -0.004156 0.005605 -0.000500
v -0.004156 -0.000321 -0.000500
v -0.004156 -0.000321 0.000500
v 0.000924 -0.000321 -0.000500
v 0.000924 -0.000321 0.000500
v 0.001770 -0.005400 -0.000500
v 0.001770 -0.005400 0.000500
v -0.001616 -0.012172 -0.000500
v -0.001616 -0.012172 0.000500
v -0.005850 -0.007939 -0.000500
v -0.005850 -0.007939 0.000500
v -0.002463 -0.005400 -0.000500
v -0.002463 -0.005400 0.000500
v 0.002617 -0.005400 -0.000500
v 0.002617 -0.005400 0.000500
v 0.001770 -0.000321 -0.000500
v 0.001770 -0.000321 0.000500
v 0.005157 -0.004553 -0.000500
v 0.005157 -0.004553 0.000500
v 0.004310 -0.007939 -0.000500
v 0.004310 -0.007939 0.000500
v 0.006850 -0.010479 -0.000500
v 0.006850 -0.010479 0.000500
v 0.001770 -0.012172 -0.000500
v 0.001770 -0.012172 0.000500
v 0.000924 -0.009632 -0.000500
v 0.000924 -0.009632 0.000500
v 0.006004 0.007298 -0.000500
v 0.006004 0.007298 0.000500
v 0.011931 0.008144 -0.000500
v 0.011931 0.008144 0.000500
v 0.011931 -0.001167 -0.000500
v 0.011931 -0.001167 0.000500
v 0.004310 0.001372 -0.000500
v 0.004310 0.001372 0.000500
v 0.005157 0.002642 -0.000500
v 0.005157 0.002642 0.000500
v 0.005157 0.006451 -0.000500
v 0.005157 0.006451 0.000500
v -0.011777 0.001372 -0.000500
v -0.011777 0.001372 0.000500
v -0.011777 0.008144 -0.000500
v -0.011777 0.008144 0.000500
v -0.006697 0.007298 -0.000500
v -0.006697 0.007298 0.000500
v -0.005003 0.007298 -0.000500
v -0.005003 0.007298 0.000500
v -0.005003 0.005182 -0.000500
v -0.005003 0.005182 0.000500
v -0.003310 0.001796 -0.000500
v -0.003310 0.001796 0.000500
v -0.010930 -0.000321 -0.000500
v -0.010930 -0.000321 0.000500
v -0.004156 0.007298 -0.000500
v -0.004156 0.007298 0.000500
v 0.004310 0.007298 -0.000500
v 0.004310 0.007298 0.000500
v 0.004310 0.003065 -0.000500
v 0.004310 0.003065 0.000500
v 0.002617 0.000526 -0.000500
v 0.002617 0.000526 0.000500
v -0.002463 0.000526 -0.000500
v -0.002463 0.000526 0.000500
v -0.002463 0.002219 -0.000500
v -0.002463 0.002219 0.000500
v -0.004156 0.005605 -0.000500
v -0.004156 0.005605 0.000500
vn -0.0000 -0.0000 1.0000
vn -0.0000 -0.0000 -1.0000
vn -0.8113 0.5847 -0.0000
vn 0.6464 0.7630 -0.0000
vn 0.9889 -0.1487 -0.0000
vn 0.1602 -0.9871 -0.0000
vn -0.9975 0.0709 -0.0000
vn -0.9545 0.2982 -0.0000
vn -0.9942 0.1075 -0.0000
vn -0.4078 0.9131 -0.0000
vn 0.9770 0.2133 -0.0000
vn 0.9637 0.2670 -0.0000
vn 0.9733 -0.2297 -0.0000
vn -0.4472 -0.8944 -0.0000
vn -0.9996 0.0294 -0.0000
vn -0.4472 0.8945 -0.0000
vn 0.6552 0.7554 -0.0000
vn 0.5847 -0.8112 -0.0000
vn -0.9459 -0.3245 -0.0000
vn -0.9571 0.2898 -0.0000
vn -0.9239 0.3827 -0.0000
vn -0.9732 -0.2298 -0.0000
vn -0.6464 0.7630 -0.0000
vn 0.0825 0.9966 -0.0000
vn 0.7071 0.7071 -0.0000
vn 0.9732 0.2298 -0.0000
vn 0.9139 -0.4060 -0.0000
vn -0.4060 -0.9139 -0.0000
vn -0.7071 0.7071 -0.0000
vn 0.9571 -0.2898 -0.0000
vn 0.4718 -0.8817 -0.0000
vn -0.7071 -0.7071 -0.0000
vt 0.150766 0.594079
vt 0.299917 0.760068
vt 0.153799 0.786397
vt 0.676657 0.765002
vt 0.850478 0.521814
vt 0.850478 0.789320
vt 0.348749 0.759305
vt 0.347802 0.699206
vt 0.379734 0.710666
vt 0.618887 0.756964
vt 0.380027 0.758428
vt 0.618155 0.637559
vt 0.651826 0.740683
vt 0.651826 0.631249
vt 0.426921 0.614849
vt 0.395117 0.602284
vt 0.569944 0.566209
vt 0.626994 0.594771
vt 0.426628 0.567087
vt 0.174424 0.545618
vt 0.425369 0.392143
vt 0.524654 0.537479
vt 0.378191 0.539122
vt 0.547421 0.390774
vt 0.575225 0.388890
vt 0.645578 0.411855
vt 0.554924 0.536645
vt 0.620303 0.314225
vt 0.326906 0.320023
vt 0.447589 0.196627
vt 0.526167 0.267246
vt 0.688666 0.239036
vt 0.547960 0.193106
vt 0.150107 0.595355
vt 0.153051 0.787651
vt 0.298939 0.761263
vt 0.676067 0.763368
vt 0.851540 0.787686
vt 0.851540 0.520181
vt 0.347692 0.760479
vt 0.346771 0.700387
vt 0.377381 0.709559
vt 0.377381 0.756896
vt 0.622566 0.756896
vt 0.622566 0.638554
vt 0.650999 0.739049
vt 0.650999 0.629615
vt 0.426418 0.614885
vt 0.394052 0.603456
vt 0.573529 0.567548
vt 0.625932 0.593137
vt 0.426418 0.567548
vt 0.173747 0.546889
vt 0.426163 0.391957
vt 0.379493 0.538818
vt 0.525041 0.537388
vt 0.547453 0.390766
vt 0.574264 0.393887
vt 0.548463 0.538150
vt 0.645129 0.410880
vt 0.622769 0.318416
vt 0.328208 0.319718
vt 0.447960 0.196540
vt 0.528512 0.279977
vt 0.695010 0.240719
vt 0.553281 0.206732
vt 0.434677 0.313264
vt 0.438157 0.313188
vt 0.426420 0.313444
vt 0.432009 0.313322
vt 0.439515 0.313159
vt 0.434282 0.313273
vt 0.440314 0.313141
vt 0.440445 0.313139
vt 0.444958 0.313041
vt 0.441912 0.313107
vt 0.435710 0.313242
vt 0.428383 0.313401
vt 0.433004 0.313300
vt 0.436747 0.313219
vt 0.433882 0.313281
vt 0.438437 0.313182
vt 0.430894 0.313346
vt 0.434722 0.313263
vt 0.429251 0.313382
vt 0.430670 0.313351
vt 0.428446 0.313399
vt 0.430120 0.313363
vt 0.433415 0.313291
vt 0.429757 0.313371
vt 0.435607 0.313244
vt 0.438356 0.313184
vt 0.434271 0.313273
vt 0.436604 0.313222
vt 0.447316 0.312989
vt 0.448855 0.312956
vt 0.434511 0.313268
vt 0.432828 0.313304
vt 0.437491 0.313203
vt 0.445670 0.313025
vt 0.429432 0.313378
vt 0.432367 0.313314
vt 0.435451 0.313247
vt 0.433051 0.313299
s 0
usemtl SVGMat
f 20/1/1 22/2/1 21/3/1
f 14/4/1 16/5/1 15/6/1
f 20/1/1 23/7/1 22/2/1
f 20/1/1 24/8/1 23/7/1
f 33/9/1 28/10/1 27/11/1
f 33/9/1 29/12/1 28/10/1
f 19/13/1 16/5/1 14/4/1
f 18/14/1 16/5/1 19/13/1
f 32/15/1 29/12/1 33/9/1
f 20/1/1 25/16/1 24/8/1
f 32/15/1 30/17/1 29/12/1
f 17/18/1 16/5/1 18/14/1
f 31/19/1 30/17/1 32/15/1
f 20/1/1 26/20/1 25/16/1
f 6/21/1 2/22/1 1/23/1
f 6/21/1 3/24/1 2/22/1
f 7/25/1 9/26/1 8/27/1
f 7/25/1 10/28/1 9/26/1
f 5/29/1 3/24/1 6/21/1
f 5/29/1 4/30/1 3/24/1
f 13/31/1 10/28/1 7/25/1
f 13/31/1 11/32/1 10/28/1
f 12/33/1 11/32/1 13/31/1
f 53/34/2 54/35/2 55/36/2
f 47/37/2 48/38/2 49/39/2
f 53/34/2 55/36/2 56/40/2
f 53/34/2 56/40/2 57/41/2
f 66/42/2 60/43/2 61/44/2
f 66/42/2 61/44/2 62/45/2
f 52/46/2 47/37/2 49/39/2
f 51/47/2 52/46/2 49/39/2
f 65/48/2 66/42/2 62/45/2
f 53/34/2 57/41/2 58/49/2
f 65/48/2 62/45/2 63/50/2
f 50/51/2 51/47/2 49/39/2
f 64/52/2 65/48/2 63/50/2
f 53/34/2 58/49/2 59/53/2
f 39/54/2 34/55/2 35/56/2
f 39/54/2 35/56/2 36/57/2
f 40/58/2 41/59/2 42/60/2
f 40/58/2 42/60/2 43/61/2
f 38/62/2 39/54/2 36/57/2
f 38/62/2 36/57/2 37/63/2
f 46/64/2 40/58/2 43/61/2
f 46/64/2 43/61/2 44/65/2
f 45/66/2 46/64/2 44/65/2
s 1
f 68/67/3 70/68/4 69/68/4 67/67/3
f 70/69/4 72/70/5 71/70/5 69/69/4
f 72/70/5 74/71/6 73/71/6 71/70/5
f 74/72/6 76/73/7 75/73/7 73/72/6
f 76/74/7 78/75/8 77/75/8 75/74/7
f 78/68/8 68/76/3 67/76/3 77/68/8
f 80/77/9 82/71/10 81/71/10 79/77/9
f 82/78/10 84/79/11 83/79/11 81/78/10
f 84/79/11 86/80/12 85/80/12 83/79/11
f 86/80/12 88/71/13 87/71/13 85/80/12
f 88/81/13 90/82/14 89/82/14 87/81/13
f 90/82/14 92/73/15 91/73/15 89/82/14
f 92/83/15 80/77/9 79/77/9 91/83/15
f 94/84/16 96/71/17 95/71/17 93/84/16
f 96/85/17 98/71/18 97/71/18 95/85/17
f 98/86/18 100/71/19 99/71/19 97/86/18
f 100/87/19 102/88/20 101/88/20 99/87/19
f 102/88/20 104/89/21 103/89/21 101/88/20
f 104/89/21 94/84/16 93/84/16 103/89/21
f 106/90/22 108/91/23 107/91/23 105/90/22
f 108/91/23 110/92/24 109/92/24 107/91/23
f 110/92/24 112/71/25 111/71/25 109/92/24
f 112/93/25 114/94/26 113/94/26 111/93/25
f 114/94/26 116/73/27 115/73/27 113/94/26
f 116/73/27 118/95/28 117/95/28 115/73/27
f 118/95/28 106/96/22 105/96/22 117/95/28
f 120/97/29 122/73/25 121/73/25 119/97/29
f 122/98/25 124/99/30 123/99/30 121/98/25
f 124/99/30 126/73/31 125/73/31 123/99/30
f 126/74/31 128/100/32 127/100/32 125/74/31
f 128/101/32 130/83/22 129/83/22 127/101/32
f 130/102/22 132/103/22 131/103/22 129/102/22
f 132/104/22 120/97/29 119/97/29 131/104/22
